inDegrees=no
num_controls=7
num_derivatives=13
num_iterations=108
num_multipliers=7
num_parameters=0
num_slacks=7
num_states=26
objective=0.448429
objective_accelerations=0.049504
objective_balance=0.007530
objective_effort=0.036767
objective_height=0.349688
objective_ligament=0.004939
solver_duration=1529.061253
status=Solve_Succeeded
success=true
DataType=double
version=3
OpenSimVersion=4.5
endheader
time	/jointset/ground_pelvis/pelvis_tilt/value	/jointset/ground_pelvis/pelvis_tx/value	/jointset/ground_pelvis/pelvis_ty/value	/jointset/hip_l/hip_flexion_l/value	/jointset/hip_l/hip_adduction_l/value	/jointset/hip_l/hip_rotation_l/value	/jointset/back/lumbar_extension/value	/jointset/patellofemoral_l/patellar_flexion_l/value	/jointset/knee_l/knee_flexion_l/value	/jointset/knee_l/knee_adduction_l/value	/jointset/knee_l/knee_rotation_l/value	/jointset/ankle_l/ankle_angle_l/value	/jointset/subtalar_l/subtalar_angle_l/value	/jointset/ground_pelvis/pelvis_tilt/speed	/jointset/ground_pelvis/pelvis_tx/speed	/jointset/ground_pelvis/pelvis_ty/speed	/jointset/hip_l/hip_flexion_l/speed	/jointset/hip_l/hip_adduction_l/speed	/jointset/hip_l/hip_rotation_l/speed	/jointset/back/lumbar_extension/speed	/jointset/patellofemoral_l/patellar_flexion_l/speed	/jointset/knee_l/knee_flexion_l/speed	/jointset/knee_l/knee_adduction_l/speed	/jointset/knee_l/knee_rotation_l/speed	/jointset/ankle_l/ankle_angle_l/speed	/jointset/subtalar_l/subtalar_angle_l/speed	/forceset/tau_hip_flexion_l	/forceset/tau_hip_adduction_l	/forceset/tau_hip_rotation_l	/forceset/tau_knee_flexion_l	/forceset/tau_ankle_angle_l	/forceset/tau_subtalar_angle_l	/forceset/tau_lumbar_extension	lambda_cid13_p0	lambda_cid13_p1	lambda_cid13_p2	lambda_cid13_p3	lambda_cid13_p4	lambda_cid13_p5	lambda_cid14_p0	/jointset/ground_pelvis/pelvis_tilt/accel	/jointset/ground_pelvis/pelvis_tx/accel	/jointset/ground_pelvis/pelvis_ty/accel	/jointset/hip_l/hip_flexion_l/accel	/jointset/hip_l/hip_adduction_l/accel	/jointset/hip_l/hip_rotation_l/accel	/jointset/back/lumbar_extension/accel	/jointset/patellofemoral_l/patellar_flexion_l/accel	/jointset/knee_l/knee_flexion_l/accel	/jointset/knee_l/knee_adduction_l/accel	/jointset/knee_l/knee_rotation_l/accel	/jointset/ankle_l/ankle_angle_l/accel	/jointset/subtalar_l/subtalar_angle_l/accel	gamma_cid13_p0	gamma_cid13_p1	gamma_cid13_p2	gamma_cid13_p3	gamma_cid13_p4	gamma_cid13_p5	gamma_cid14_p0
0	-0.1598310153445728	0.05844962625570502	0.8979875137863994	0.3774924667018715	-0.2593005859547725	-0.2701861502824598	-0.01265067647494873	0.03223648243721602	0.03223648243721463	-0.1745326224008035	0.1718706218822088	-0.04231377076293093	-0.00945733644573925	0	0	0	0	0	0	0	0	0	0	0	0	0	0.1495038226363825	-0.07232604596796396	-0.05099149508267475	-0.3038005157582111	0.3075470613630698	-0.05066893794511008	-0.0936816025185007	56.23138171522733	5.83010894299286	5.898145709933245	-4.008451281625236	-590.2314040626819	-66.04843057509817	-38.99062105664887	-4.310871382247011	-2.135843222354663	-1.102529901375897	12.40618787032532	-1.207968766244213	3.054599590025824	-5.64403994545702	8.884053590176942	8.884053590179139	0.1092015731282583	0.02192036272866277	0.8896870861656893	-1.031564439918893	-5.245955421979774e-08	1.482328567737075e-07	9.055781125408523e-08	2.416520936616822e-08	1.076965210398715e-08	-6.196112620110472e-10	-1.074289203186763e-08
0.01	-0.1600388147578312	0.05834344879208562	0.8979335821851777	0.3780980847828584	-0.2593607532316369	-0.2700349121919801	-0.01293466052790815	0.03267108168456104	0.03267108168456494	-0.1745291798418767	0.1718699787273353	-0.0422724346494663	-0.009509388184370238	-0.04127728291138689	-0.02121054751891092	-0.01074948782758757	0.1205974545117712	-0.01196902499340673	0.03000960946771442	-0.05647997424314879	0.08659232817411396	0.08659232817414127	0.0006941730651203067	-1.377513357332628e-05	0.008167348668269764	-0.01036802034578489	0.1407972514217901	-0.08163901980298162	-0.04894467386217797	-0.2911514415088484	0.2869125613500462	-0.03381910400908856	-0.08714635450656712	50.22040691216677	-0.1705482686767615	6.552407509323777	-0.3862652717901712	-590.9279666770568	-77.21647839254639	-39.0030148627271	-3.993775606024902	-2.109913903097944	-1.055631206999311	11.80759104176977	-1.181736871382698	2.938432016189006	-5.602450711314899	8.497696385276413	8.497696385278054	0.05040933680876788	0.004196244171940193	0.7652737080166379	-1.033104745910556	-5.502349160582788e-08	1.198860665872461e-07	1.088589179579602e-07	2.460136027640174e-08	-7.430419522636549e-08	1.241490503404388e-08	-1.644859894892227e-08
0.02	-0.1606509107722953	0.05802591517598913	0.8977732611089703	0.3798938907689925	-0.2595386842595339	-0.2695907199286128	-0.01377393923281373	0.03396177900450424	0.03396177900450389	-0.1745186187196184	0.1718726423602294	-0.04215242205914731	-0.009663856909259499	-0.08085932024037641	-0.04227123049541778	-0.02127789499713855	0.2380375810302093	-0.02355275020656384	0.05859083457721817	-0.1110589303891308	0.1712196145181388	0.1712196145181393	0.001423712674433858	0.0006613575557465152	0.01573529537089885	-0.0204833972516606	0.1320906802071918	-0.09095199363800319	-0.04689785264174549	-0.2785023672594754	0.2662780613370238	-0.01696927007306957	-0.0806111064946376	44.28550165568512	-6.183783751863886	7.207831756970262	3.124150614449035	-590.4483968564527	-88.28174899230402	-39.0398912728844	-3.971822265767452	-2.10587031387393	-1.058313769768576	11.7747222716587	-1.130908810194248	2.768922718383682	-5.26383632602362	8.491045224159125	8.491045224150495	0.1162748819669918	0.1597019273072992	0.7698066930374696	-0.9810357519370366	-5.758742899185802e-08	9.153927640078468e-08	1.271600246618351e-07	2.503751118663527e-08	-1.593780425567181e-07	2.544942133009881e-08	-2.215430586597691e-08
0.03	-0.1616518211798905	0.0574996986917994	0.8975085593098598	0.382848390797324	-0.2598302969957103	-0.2688662787052074	-0.01514812801005865	0.03608843827584235	0.03608843827583745	-0.1745003721892316	0.1718838542956218	-0.04195841747169689	-0.009917723390195053	-0.1191516888701715	-0.06282749944514693	-0.03164007303630108	0.3522884974842478	-0.03469227169865966	0.08622213341316055	-0.1633609981660763	0.2537146493585609	0.2537146493585969	0.002231194099912491	0.001520375318269955	0.02309026585299715	-0.03020924676795417	0.127172844681482	-0.08550343757394058	-0.04636256683445165	-0.2753455505250716	0.2649593830807119	-0.02016779015774761	-0.07632169780163545	43.77766761019053	-4.814775450945899	7.114108195787049	2.417771922848754	-590.5174286307379	-84.74977298148573	-39.10032646260797	-3.732290021229168	-2.008815141841124	-1.021843272035821	11.16417737335757	-1.093859995694007	2.748923122050997	-5.150717969353969	8.069098509397593	8.069098509406968	0.06384945579323149	0.03988579120195742	0.7220360698888502	-0.9562900781871152	-8.219043080643186e-08	1.2242577459073e-07	1.527669654232175e-07	4.74508726290833e-08	-2.666734261548141e-07	3.179504713853623e-08	-2.584256284924105e-08
0.04	-0.1630305244457161	0.05677225752684847	0.8971409010401487	0.3869281801984083	-0.2602309821822025	-0.2678677865622692	-0.01703280265823844	0.03902812107465906	0.03902812107465831	-0.1744738779080021	0.1719018332267433	-0.04169012441060707	-0.01026643447163587	-0.1564178918856911	-0.08251616664766043	-0.04186918911730746	0.463095455581536	-0.04536724026982337	0.1134010184831591	-0.2131561045759701	0.3338243200155345	0.3338243200155948	0.00307326284358585	0.002014756699877622	0.0305929900988069	-0.03945231735271256	0.1222550091557459	-0.08005488150988638	-0.04582728102712141	-0.2721887337907037	0.263640704824385	-0.02336631024243765	-0.07203228910863835	43.33962007533806	-3.45634972049128	7.020205034874875	1.604058789369823	-589.5255165422702	-81.11937001783897	-39.18283814224452	-3.766589142912287	-1.932349964430864	-1.031701378137347	11.08593060030864	-1.03799822600782	2.678439965194895	-4.762444052613248	8.013972387469433	8.013972387458532	0.1231923456059467	0.08677465112415295	0.79935744577968	-0.8844799656300145	-1.072478463205633e-07	1.545335776956527e-07	1.785245419383628e-07	7.031737243302031e-08	-3.744269857584306e-07	3.800275767918772e-08	-2.948922292665384e-08
0.05	-0.1647766718332917	0.0558518144328032	0.8966713853495909	0.3920995920305418	-0.2607360518551076	-0.266600402265369	-0.01940301257745305	0.04275747573955293	0.04275747573955342	-0.1744388995686877	0.1719236770312572	-0.04134650959835273	-0.01070523320660982	-0.1925876419276425	-0.1014699351449349	-0.05202741205722448	0.5706102897593064	-0.05557168319024017	0.139939796122488	-0.2605237396404242	0.4116526982447265	0.4116526982448098	0.003895888235474715	0.002350634509533097	0.03809443446614826	-0.04824398827369036	0.1150868250343113	-0.07769804451864312	-0.04467684848482004	-0.2655414304048168	0.2555907653069767	-0.02122924099821861	-0.06634190510413253	40.93170511371203	-3.985401916808436	7.130285876491593	2.420815518338712	-588.4668511367493	-81.01203088002201	-39.28553758672526	-3.50858365815201	-1.861498491831601	-1.006977967504918	10.49775177100632	-1.0004385403665	2.621164882676496	-4.669602289273826	7.608189260175829	7.608189260186414	0.05785926404847658	0.006465580791639586	0.7202007827306527	-0.8670380830459301	-1.21358059635503e-07	1.608748846017314e-07	2.0642401815226e-07	8.153736101863196e-08	-4.412850807775867e-07	3.992990155508073e-08	-3.439686882265217e-08
0.06	-0.1668777998659532	0.05474491201389381	0.8961004683865169	0.3983288505933468	-0.2613409202002779	-0.2650717165481983	-0.02223603465849566	0.04725329793064618	0.04725329793064603	-0.1743964826498323	0.1719487738608451	-0.04092894777232123	-0.01123005413633643	-0.2274140209021972	-0.1198080316204859	-0.06214944362058199	0.6746648017168789	-0.06532697472297119	0.1656613025367995	-0.3057185369413621	0.4871178252551874	0.4871178252553605	0.004560978750086259	0.002665361715405987	0.04538239285425964	-0.05665675630323964	0.1079186409128469	-0.07534120752740618	-0.04352641594254645	-0.2588941270189414	0.2475408257895625	-0.01909217175400655	-0.06065152109964533	38.58479577679467	-4.522414873077113	7.238529831109576	3.138965361661355	-586.4727569005472	-80.81453274199561	-39.40655858910939	-3.497914929432852	-1.809215560086239	-1.024463102825449	10.39386615626907	-0.9481679484706625	2.514985720191399	-4.327876499909991	7.541322143723228	7.541322143725661	0.09168537015048379	0.08254453036764563	0.7566602499336069	-0.8086993873443269	-1.35007338121003e-07	1.661312864047009e-07	2.344136796166308e-07	9.226697018452463e-08	-5.064212614984497e-07	4.167681104508916e-08	-3.935760885838041e-08
0.07000000000000001	-0.1693211218553902	0.05345790426471442	0.8954283486324838	0.4055823432130575	-0.262040648123151	-0.2632899783966314	-0.02550929990544938	0.05249265421556527	0.05249265421556647	-0.1743473503491468	0.1719771859845504	-0.04043895807437382	-0.01183653658646921	-0.2610414351706897	-0.1374676052586858	-0.07227640758101496	0.775465985697751	-0.07450455912096021	0.1905471616865294	-0.3485379408758999	0.5603759347919322	0.5603759347920848	0.005303577682877215	0.003018882431515004	0.05262385804591771	-0.0645288663344963	0.1007028986825531	-0.07225067987950733	-0.04252105715632547	-0.2535624682642619	0.2418356771413942	-0.01808429405159248	-0.05483173983881692	36.92920787361328	-4.698974201968497	7.299482149561745	3.2372186809577	-584.9046276261535	-79.89006814866815	-39.54374355058881	-3.263821271298352	-1.725422738900289	-1.007200175681075	9.838065930171572	-0.8854703446813884	2.45447657742348	-4.199486604107	7.161438749779686	7.16143874977596	0.07130649803400267	0.01199556749990154	0.7091285177827872	-0.759888179521789	-1.397772600433451e-07	1.747393509310234e-07	2.314060461189694e-07	1.009001417844134e-07	-5.418621223406528e-07	4.774348134764505e-08	-3.799267682832227e-08
0.08	-0.1720944513066637	0.05199808188451015	0.8946548818122405	0.4138268119548083	-0.2628287352218467	-0.261263563540554	-0.0291988620445254	0.05845326827407994	0.05845326827407933	-0.1742896401904888	0.1720091812604656	-0.03987630595170977	-0.0125184244106157	-0.2934155132688056	-0.1543709578254627	-0.08241885686258575	0.8728600261256353	-0.08299880988768386	0.2145966434386463	-0.388977915365682	0.63136937997386	0.6313693799740139	0.006276550343290353	0.003381992158320536	0.05991487779760932	-0.07173783110597205	0.09348715645224513	-0.06916015223161244	-0.04151569837013467	-0.2482308095095861	0.2361305284932226	-0.01707641634918251	-0.0490119585779966	35.3266479555366	-4.881492083455198	7.35758629544164	3.244661120588881	-582.5290502285918	-78.88384858210222	-39.69485306909227	-3.247247695357469	-1.657971345801688	-1.027560167053018	9.712437445671492	-0.8115012222175875	2.347710240668802	-3.851990610958852	7.088389272759855	7.088389272766599	0.1377601156749206	0.08446233250695934	0.766571161940244	-0.676070335388164	-1.43974320251935e-07	1.835636517620784e-07	2.263985871398866e-07	1.093980593477859e-07	-5.753871560939101e-07	5.408884589617173e-08	-3.62196369230521e-08
0.09	-0.1751858909777308	0.05037281953265359	0.8937796959250631	0.4230293657631835	-0.2636986223271304	-0.2590006855824631	-0.03328114346858693	0.06511295759656863	0.06511295759657458	-0.1742215999262087	0.1720448790701963	-0.03924069690181339	-0.01326941107454133	-0.3246755118741743	-0.1705701677412166	-0.09263343649884916	0.9671014070430859	-0.09089518201941491	0.2378613459357202	-0.4271542146703267	0.700169888096329	0.7001698880963778	0.007294987388154692	0.00373408643041721	0.06717223461725007	-0.07838950151326621	0.08642870529272635	-0.06647065909752833	-0.04055519541810836	-0.2435908317204832	0.2308529874057008	-0.01581050993395531	-0.04341351380694814	33.85055134261439	-5.184322518620244	7.419002369701312	3.370433989589794	-580.3386311236227	-78.13390181729933	-39.85741815098643	-3.035846045009165	-1.584172076976486	-1.020789870058911	9.197570981314925	-0.7662149563982973	2.298178047428098	-3.751826373683282	6.716099333120326	6.716099333099684	0.07845429325973062	0.007029669881652774	0.700104772061969	-0.6492682233002205	-1.473707286494781e-07	1.783028426089687e-07	2.352511935381013e-07	1.144826318385199e-07	-5.887320833401524e-07	4.927567966414929e-08	-3.743382621483743e-08
